Coordinates
version=1
nRows=14
nColumns=38
inDegrees=no

Units are S.I. units (second, meters, Newtons, ...)
If the header above contains a line with 'inDegrees', this indicates whether rotational values are in degrees (yes) or radians (no).

endheader
time	pelvis_tilt	pelvis_list	pelvis_rotation	pelvis_tx	pelvis_ty	pelvis_tz	hip_flexion_r	hip_adduction_r	hip_rotation_r	knee_angle_r	ankle_angle_r	subtalar_angle_r	mtp_angle_r	hip_flexion_l	hip_adduction_l	hip_rotation_l	knee_angle_l	ankle_angle_l	subtalar_angle_l	mtp_angle_l	lumbar_extension	lumbar_bending	lumbar_rotation	arm_flex_r	arm_add_r	arm_rot_r	elbow_flex_r	pro_sup_r	wrist_flex_r	wrist_dev_r	arm_flex_l	arm_add_l	arm_rot_l	elbow_flex_l	pro_sup_l	wrist_flex_l	wrist_dev_l
1.17	-1.76539	1.50213	0.253725	0.767221	0.589178	1.06185	-0.156365	0.116734	-0.330477	0.10286	-0.224859	0	0	0.263607	-0.187281	-0.329724	0.357772	-0.157749	0	0	-0.203949	0.0617279	0.0172528	0.0232507	-0.257805	0.0508044	0.874672	1.5708	0	0	-0.121052	-0.292109	0.448066	0.606298	1.01522	0	0
1.18	-1.83157	1.49979	0.316905	0.768482	0.576721	1.0598	-0.164861	0.116437	-0.330476	0.101332	-0.222014	0	0	0.267823	-0.177292	-0.312123	0.280477	-0.172944	0	0	-0.199514	0.0626326	0.0189883	0.0271172	-0.26101	0.0475472	0.88979	1.5708	0	0	-0.125058	-0.29086	0.451064	0.60431	1.01099	0	0
1.19	-1.90355	1.4955	0.38628	0.769793	0.564168	1.05727	-0.171545	0.117435	-0.329444	0.100927	-0.217699	0	0	0.271975	-0.168612	-0.287555	0.202183	-0.187366	0	0	-0.193407	0.0651349	0.020797	0.0298979	-0.264307	0.0434571	0.904829	1.5708	0	0	-0.128774	-0.289432	0.454902	0.602417	1.00799	0	0
1.2	-1.97206	1.48953	0.452338	0.771121	0.551513	1.05433	-0.176732	0.119429	-0.327545	0.102197	-0.208954	0	0	0.275487	-0.161663	-0.256406	0.123425	-0.204956	0	0	-0.186348	0.0687957	0.0219675	0.0330154	-0.269098	0.0433085	0.918925	1.5708	0	0	-0.137166	-0.28007	0.426557	0.599643	1.0367	0	0
1.21	-2.03317	1.48221	0.511394	0.77249	0.538741	1.05099	-0.180675	0.122141	-0.325155	0.105098	-0.197107	0	0	0.279527	-0.157318	-0.223169	0.048942	-0.215611	0	0	-0.178039	0.0735756	0.0247528	0.0325745	-0.270047	0.0317409	0.934529	1.5708	0	0	-0.13557	-0.285281	0.461516	0.598603	1.00887	0	0
1.22	-2.06759	1.4753	0.543059	0.773885	0.525811	1.04754	-0.186461	0.124821	-0.321539	0.108139	-0.20004	0	0	0.285536	-0.15667	-0.204555	0	-0.213539	0	0	-0.17209	0.0783025	0.0264694	0.0346852	-0.273803	0.0291542	0.947807	1.5708	0	0	-0.141986	-0.279265	0.446291	0.598103	1.02505	0	0
1.23	-2.11263	1.46685	0.586697	0.775436	0.512747	1.04369	-0.187604	0.12706	-0.322384	0.11821	-0.172708	0	0	0.300299	-0.158235	-0.195492	0	-0.200546	0	0	-0.163099	0.0839745	0.0286107	0.0330487	-0.27481	0.0181234	0.96229	1.5708	0	0	-0.143347	-0.278253	0.456493	0.596339	1.02105	0	0
1.24	-2.12734	1.46132	0.598943	0.776897	0.499559	1.04009	-0.192809	0.127807	-0.321769	0.128209	-0.164755	0	0	0.31124	-0.159492	-0.193036	0	-0.190222	0	0	-0.159162	0.0878914	0.030696	0.0339887	-0.276676	0.0123394	0.974066	1.5708	0	0	-0.146806	-0.276095	0.454502	0.597758	1.02581	0	0
1.25	-2.13541	1.4576	0.604459	0.778389	0.486157	1.03656	-0.198694	0.126762	-0.321277	0.140756	-0.157905	0	0	0.320306	-0.159632	-0.19177	0	-0.180035	0	0	-0.156905	0.0903112	0.0326149	0.0351278	-0.277824	0.00694366	0.983949	1.5708	0	0	-0.150052	-0.274166	0.451271	0.599692	1.03077	0	0
1.26	-2.13656	1.45598	0.60289	0.779912	0.472509	1.03322	-0.205894	0.123941	-0.32041	0.154673	-0.152789	0	0	0.327053	-0.158184	-0.191649	0	-0.170372	0	0	-0.156646	0.0910164	0.0343053	0.0365622	-0.278371	0.00249188	0.991745	1.5708	0	0	-0.152649	-0.272286	0.447435	0.600986	1.03586	0	0
1.27	-2.13238	1.45637	0.595703	0.781472	0.458672	1.03017	-0.214534	0.119447	-0.317295	0.168747	-0.150259	0	0	0.331687	-0.154816	-0.192346	0	-0.163369	0	0	-0.158249	0.0900268	0.0358523	0.038436	-0.278988	0.000149792	0.997362	1.5708	0	0	-0.154603	-0.270624	0.443671	0.601921	1.04154	0	0
1.28	-2.12016	1.45892	0.580907	0.783097	0.444609	1.02746	-0.225061	0.113506	-0.313382	0.182774	-0.14932	0	0	0.334469	-0.149262	-0.193736	0	-0.158756	0	0	-0.161805	0.0873114	0.0372567	0.039658	-0.278084	-0.0038955	1.00116	1.5708	0	0	-0.154308	-0.271501	0.449294	0.602811	1.03868	0	0
1.29	-2.09626	1.46375	0.554978	0.784766	0.430288	1.02514	-0.237255	0.105899	-0.309729	0.198724	-0.148842	0	0	0.335008	-0.142008	-0.195887	0	-0.156371	0	0	-0.167595	0.0827969	0.0384244	0.0401814	-0.276335	-0.00836785	1.00341	1.5708	0	0	-0.1533	-0.272354	0.453124	0.603154	1.03667	0	0
1.3	-2.06632	1.46982	0.524094	0.786494	0.415617	1.02309	-0.250405	0.0974145	-0.305831	0.214899	-0.149768	0	0	0.334154	-0.133842	-0.196569	0	-0.158198	0	0	-0.173894	0.0770147	0.0388967	0.0392906	-0.273765	-0.0133597	1.00424	1.5708	0	0	-0.152138	-0.273345	0.455477	0.603234	1.03522	0	0
